<svg width="105" height="84" viewBox="0 0 105 84" fill="none" xmlns="http://www.w3.org/2000/svg">
<path d="M98.5259 0.549109V18.1159H88.4509C80.5286 18.1159 76.5675 22.077 76.5675 29.9993V38.266H80.9592C87.8481 38.266 93.5315 40.3326 98.0093 44.466C102.659 48.5993 104.984 53.8521 104.984 60.2244C104.984 67.1133 102.659 72.7106 98.0093 77.0161C93.5315 81.3217 87.8481 83.4745 80.9592 83.4745C73.898 83.4745 68.1286 81.3217 63.6508 77.0161C59.173 72.5383 56.9341 66.5967 56.9341 59.1911V29.4826C56.9341 10.1936 66.5786 0.549109 85.8675 0.549109H98.5259ZM41.6923 0.549109V18.1159H31.6173C23.695 18.1159 19.7339 22.077 19.7339 29.9993V38.266H24.1256C31.0145 38.266 36.6979 40.3326 41.1757 44.466C45.8257 48.5993 48.1507 53.8521 48.1507 60.2244C48.1507 67.1133 45.8257 72.7106 41.1757 77.0161C36.6979 81.3217 31.0145 83.4745 24.1256 83.4745C17.0644 83.4745 11.295 81.3217 6.81716 77.0161C2.33937 72.5383 0.100465 66.5967 0.100465 59.1911V29.4826C0.100465 10.1936 9.74496 0.549109 29.0339 0.549109H41.6923Z" fill="white" fill-opacity="0.1"/>
</svg>
