<svg width="105" height="84" viewBox="0 0 105 84" fill="none" xmlns="http://www.w3.org/2000/svg">
<path d="M6.55883 83.4745V65.9078H16.6339C24.5561 65.9078 28.5173 61.9466 28.5173 54.0244V45.7577H24.1256C17.2367 45.7577 11.4672 43.691 6.81716 39.5576C2.33937 35.4243 0.100465 30.1715 0.100465 23.7992C0.100465 16.9103 2.33937 11.3131 6.81716 7.00748C11.4672 2.7019 17.2367 0.549109 24.1256 0.549109C31.1867 0.549109 36.9562 2.78801 41.434 7.26581C45.9118 11.5714 48.1507 17.427 48.1507 24.8326V54.541C48.1507 73.83 38.5062 83.4745 19.2172 83.4745H6.55883ZM63.3924 83.4745V65.9078H73.4675C81.3897 65.9078 85.3509 61.9466 85.3509 54.0244V45.7577H80.9592C74.0703 45.7577 68.3008 43.691 63.6508 39.5576C59.173 35.4243 56.9341 30.1715 56.9341 23.7992C56.9341 16.9103 59.173 11.3131 63.6508 7.00748C68.3008 2.7019 74.0703 0.549109 80.9592 0.549109C88.0203 0.549109 93.7898 2.78801 98.2676 7.26581C102.745 11.5714 104.984 17.427 104.984 24.8326V54.541C104.984 73.83 95.3398 83.4745 76.0508 83.4745H63.3924Z" fill="white" fill-opacity="0.1"/>
</svg>
