<svg width="393" height="83" viewBox="0 0 393 83" fill="none" xmlns="http://www.w3.org/2000/svg">
<g clip-path="url(#clip0_42_207)">
<path d="M300.174 33.8035C300.487 33.5041 300.788 33.1914 301.112 32.9051C301.923 32.191 302.881 31.857 303.954 31.9639C304.905 32.0594 305.647 32.5678 306.191 33.3445C307.103 34.646 307.648 36.0989 307.884 37.6637C308.013 38.5144 308.077 39.3766 308.189 40.2306C308.396 41.8052 308.493 43.3996 308.987 44.9233C309.332 45.9895 309.811 46.9916 310.654 47.76C311.988 48.9793 313.528 49.3906 315.271 48.6107C316.362 48.1236 317.155 47.3322 317.806 46.3565C318.435 45.4136 318.728 44.3573 318.93 43.2631C319.225 41.6686 319.266 40.0479 319.439 38.4403C319.58 37.1322 319.764 35.829 320.204 34.5785C320.51 33.7065 320.952 32.9084 321.652 32.2848C322.096 31.8883 322.634 31.6349 323.195 31.4539C323.557 31.337 323.936 31.2465 324.312 31.2087C325.624 31.0787 326.476 31.5773 326.935 32.9249C327.154 33.5699 327.271 34.2511 327.407 34.9208C327.544 35.5905 327.634 36.27 327.766 36.943C327.996 38.1244 328.617 39.0771 329.574 39.7863C330.193 40.2437 330.901 40.5333 331.658 40.7159C332.405 40.8969 333.15 40.9101 333.902 40.8213C335.119 40.6781 336.174 40.1631 337.137 39.4161C338.15 38.6296 338.845 37.6012 339.371 36.4625C340.064 34.9636 340.373 33.3708 340.373 31.7188C340.373 30.0964 340.248 28.4905 339.852 26.9092C339.567 25.7689 339.338 24.6155 339.07 23.4703C338.792 22.2856 338.466 21.1108 338.216 19.9195C337.798 17.9219 337.627 15.9013 337.941 13.8725C338.137 12.6023 338.593 11.4209 339.32 10.3431C339.988 9.35256 340.78 8.4953 341.823 7.89801C342.381 7.57881 342.975 7.37148 343.621 7.26288C344.273 7.15428 344.913 7.1839 345.54 7.30895C346.988 7.59526 348.117 8.35544 348.776 9.71292C348.906 9.98112 348.99 10.2773 349.059 10.5702C349.298 11.5772 349.39 12.6023 349.282 13.6323C349.185 14.557 349.056 15.4818 348.9 16.3983C348.707 17.5303 348.465 18.6541 348.257 19.7829C348.038 20.961 347.98 22.1474 348.056 23.3452C348.169 25.142 348.433 26.9158 348.893 28.655C349.217 29.8743 349.655 31.0573 350.15 32.219C350.853 33.8693 351.793 35.3766 352.949 36.7406C353.991 37.9681 355.258 38.9191 356.745 39.5444C357.851 40.0084 359.011 40.0841 360.173 39.7879C360.933 39.5938 361.622 39.2153 362.272 38.7776C363.411 38.0092 364.431 37.1075 365.351 36.0841C366.624 34.669 367.909 33.2655 369.209 31.8767C370.254 30.7628 371.414 29.7739 372.754 29.0334C373.764 28.4757 374.858 28.2255 376.033 28.3012C376.956 28.3605 377.818 28.6073 378.616 29.0285C379.302 29.3889 379.947 29.8397 380.566 30.3119C381.907 31.337 383.044 32.5859 384.252 33.7575C384.969 34.4535 385.68 35.1561 386.509 35.7204C387.465 36.372 388.482 36.9019 389.596 37.2276C391.184 37.6917 392.755 37.6077 394.325 37.1141C395.353 36.79 396.3 36.2947 397.191 35.7155C398.384 34.9422 399.523 34.0816 400.69 33.2671C401.71 32.5547 402.72 31.8208 403.827 31.2498C404.739 30.7792 405.682 30.3794 406.697 30.1655C408.008 29.8891 409.29 30.0223 410.554 30.4041C411.85 30.7957 413.042 31.4177 414.106 32.2437C415.347 33.2079 416.553 34.2182 417.757 35.2285C418.72 36.0347 419.637 36.9002 420.617 37.6851C421.728 38.5752 422.927 39.3437 424.236 39.9146C424.935 40.2207 425.675 40.4115 426.434 40.5481C427.438 40.7275 428.428 40.6715 429.419 40.5053C430.245 40.3655 431.026 40.0808 431.773 39.6991C432.533 39.3124 433.247 38.855 433.894 38.3005C434.756 37.5584 435.551 36.7521 436.185 35.8027C436.716 35.0047 437.187 34.1754 437.544 33.2753C437.786 32.6649 438.034 32.0594 438.174 31.4177C438.325 30.7233 438.478 30.0273 438.59 29.3247C438.839 27.7747 438.868 26.2099 438.802 24.6484C438.742 23.1971 438.57 21.7525 438.333 20.3176C438.121 19.0342 437.897 17.7524 437.697 16.4674C437.399 14.557 437.149 12.6434 437.149 10.7034C437.149 9.60102 437.244 8.5101 437.503 7.44222C437.835 6.07159 438.386 4.78652 439.324 3.71699C440.415 2.47305 441.669 1.45124 443.35 1.10735C444.017 0.970781 444.685 0.982301 445.355 1.08431C446.477 1.25544 447.474 1.73755 448.379 2.39407C449.068 2.89592 449.61 3.55574 450.085 4.26656C450.668 5.13863 451.069 6.08804 451.355 7.09833C451.735 8.43606 451.809 9.79517 451.731 11.1675C451.681 12.028 451.617 12.8951 451.471 13.7425C451.28 14.8466 451.051 15.9507 450.747 17.0301C450.166 19.0852 449.519 21.1223 448.902 23.1675C448.637 24.0445 448.331 24.9133 448.13 25.8051C447.829 27.1396 447.604 28.4888 447.35 29.8331C447.161 30.8368 447.171 31.8537 447.186 32.8673C447.211 34.5357 447.462 36.1729 448.035 37.7443C448.435 38.8402 448.973 39.8653 449.674 40.8097C450.217 41.5419 450.842 42.1869 451.579 42.7085C452.509 43.3651 453.522 43.8636 454.622 44.1894C455.884 44.5646 457.155 44.6255 458.441 44.3622C459.115 44.224 459.719 43.9113 460.329 43.5938C461.231 43.1232 461.904 42.4124 462.5 41.6291C462.962 41.0203 463.293 40.3243 463.568 39.6053C463.867 38.8204 464.058 38.0092 464.204 37.1849C464.405 36.0462 464.455 34.8961 464.394 33.7476C464.344 32.7768 464.244 31.8076 464.127 30.8418C463.999 29.7689 463.824 28.6994 463.675 27.6283C463.502 26.3794 463.377 25.1289 463.383 23.8652C463.392 22.6179 463.615 21.4135 464.037 20.242C464.423 19.1675 464.937 18.1572 465.649 17.2654C466.398 16.3275 467.319 15.6002 468.479 15.2415C469.582 14.9009 470.669 14.9996 471.726 15.4768C472.741 15.9342 473.443 16.7043 473.991 17.6504C474.86 19.151 475.188 20.78 475.193 22.4929C475.196 23.4012 475.059 24.288 474.888 25.1815C474.61 26.6311 474.042 27.9771 473.526 29.3461C473.077 30.5374 472.637 31.7319 472.228 32.9364C471.986 33.6456 471.773 34.3695 471.61 35.1018C471.362 36.2173 471.291 37.351 471.352 38.4946C471.405 39.4884 471.596 40.4543 471.971 41.3741C472.463 42.5769 473.142 43.6514 474.169 44.4889C474.671 44.8986 475.183 45.2721 475.79 45.5123C476.948 45.9681 478.11 46.0142 479.275 45.5617C480.379 45.1322 481.226 44.3737 481.921 43.4276C482.403 42.7678 482.729 42.0306 483.013 41.2737C483.372 40.3227 483.581 39.3305 483.796 38.3416C484.03 37.2721 484.257 36.1993 484.548 35.1445C484.813 34.182 485.154 33.2375 485.736 32.4066C486.615 31.1544 487.711 30.2017 489.281 29.9532C490.031 29.8348 490.74 29.9368 491.398 30.3745C492.195 30.9026 492.655 31.6562 492.935 32.5333C493.24 33.4843 493.228 34.4798 493.259 35.4621C493.295 36.5728 493.523 37.6373 493.936 38.6608C494.339 39.6579 494.987 40.4724 495.841 41.1355C496.43 41.5929 497.055 41.9829 497.75 42.2495C498.502 42.5374 499.263 42.7957 500.081 42.8599C500.725 42.9093 501.361 42.9521 502.008 42.8846C503.068 42.7711 504.075 42.4897 505.044 42.0569C506.551 41.384 507.788 40.3803 508.767 39.0475C509.521 38.0224 510.066 36.9002 510.477 35.7023C510.91 34.4403 511.188 33.1437 511.372 31.8257C511.579 30.3284 511.558 28.8195 511.571 27.3107C511.583 25.9384 511.464 24.5711 511.344 23.2086C511.247 22.1046 511.051 21.0087 510.898 19.9096C510.599 17.7656 510.266 15.6265 510.13 13.4645C510.049 12.1777 510.048 10.891 510.178 9.6043C510.266 8.71578 510.39 7.83712 510.594 6.96998C510.702 6.50597 510.85 6.0469 511.031 5.60593C511.239 5.10079 511.502 4.62032 511.737 4.1267C512.03 3.5113 512.491 3.01933 512.94 2.52405C513.732 1.65033 514.689 1.00204 515.762 0.513346C516.736 0.0690867 517.758 -0.0559668 518.809 0.0246606C520.494 0.153002 521.891 0.908251 523.112 2.03865C523.997 2.85642 524.68 3.82558 525.231 4.88687C525.835 6.05019 526.174 7.304 526.375 8.59566C526.656 10.4073 526.675 12.2271 526.494 14.0486C526.37 15.2744 526.212 16.497 526.079 17.7212C525.955 18.8516 525.844 19.9836 525.727 21.1157C525.549 22.8368 525.485 24.5595 525.526 26.2889C525.554 27.4983 525.664 28.6994 525.901 29.8825C526.15 31.1215 526.566 32.3111 527.211 33.4086C527.915 34.6065 528.84 35.5987 530.008 36.3556C530.678 36.7883 531.395 37.124 532.146 37.3955C532.945 37.6834 533.761 37.9187 534.605 38.0026C535.394 38.08 536.192 38.103 536.985 38.0931C538.786 38.0701 540.448 37.532 542.054 36.734C543.382 36.0742 544.544 35.2038 545.653 34.2412C545.75 34.1573 545.883 34.1161 546 34.0569C546 50.1458 546 66.243 546 82.3418C464.058 82.3418 382.116 82.3418 300.174 82.3418C300.174 66.1607 300.174 49.9813 300.174 33.8035Z" fill="#FFCA0D"/>
</g>
<g clip-path="url(#clip1_42_207)">
<path d="M54.3481 33.8036C54.6607 33.5041 54.9618 33.1915 55.286 32.9052C56.0972 32.1911 57.0548 31.8571 58.1276 31.964C59.0787 32.0594 59.8208 32.5679 60.3654 33.3445C61.277 34.646 61.8216 36.099 62.0585 37.6638C62.1869 38.5144 62.251 39.3766 62.3629 40.2306C62.5703 41.8053 62.6674 43.3997 63.161 44.9233C63.5065 45.9896 63.9853 46.9916 64.8278 47.7601C66.1622 48.9793 67.7023 49.3907 69.4448 48.6107C70.5357 48.1237 71.3289 47.3322 71.9804 46.3565C72.609 45.4137 72.9019 44.3573 73.1042 43.2631C73.3988 41.6687 73.4399 40.048 73.6127 38.4404C73.7542 37.1323 73.9385 35.8291 74.3778 34.5786C74.6838 33.7065 75.1265 32.9085 75.8258 32.2849C76.27 31.8883 76.8081 31.6349 77.3692 31.4539C77.7312 31.3371 78.1096 31.2466 78.4864 31.2088C79.7978 31.0788 80.6502 31.5773 81.1092 32.9249C81.3281 33.5699 81.4449 34.2511 81.5815 34.9208C81.718 35.5905 81.8085 36.2701 81.9402 36.9431C82.1705 38.1245 82.7909 39.0772 83.7485 39.7863C84.3672 40.2438 85.0747 40.5334 85.8316 40.716C86.5786 40.897 87.324 40.9102 88.0759 40.8213C89.2935 40.6782 90.3483 40.1631 91.3108 39.4161C92.3244 38.6296 93.0188 37.6012 93.5453 36.4626C94.238 34.9636 94.5474 33.3708 94.5474 31.7188C94.5474 30.0965 94.4223 28.4905 94.0258 26.9093C93.7411 25.769 93.5124 24.6156 93.2442 23.4703C92.9661 22.2856 92.6403 21.1108 92.3902 19.9195C91.9723 17.922 91.8012 15.9014 92.1155 13.8726C92.3113 12.6023 92.767 11.4209 93.4943 10.3432C94.1624 9.35263 94.9538 8.49536 95.997 7.89807C96.5548 7.57887 97.1488 7.37154 97.7954 7.26294C98.447 7.15435 99.0871 7.18396 99.714 7.30902C101.162 7.59532 102.291 8.3555 102.951 9.71298C103.081 9.98118 103.164 10.2774 103.234 10.5702C103.472 11.5772 103.564 12.6023 103.456 13.6324C103.359 14.5571 103.23 15.4818 103.074 16.3983C102.881 17.5304 102.64 18.6542 102.431 19.783C102.212 20.9611 102.154 22.1474 102.23 23.3453C102.343 25.1421 102.607 26.9159 103.067 28.6551C103.392 29.8743 103.829 31.0574 104.324 32.219C105.027 33.8694 105.967 35.3766 107.123 36.7407C108.165 37.9681 109.432 38.9192 110.919 39.5445C112.025 40.0085 113.185 40.0842 114.347 39.788C115.107 39.5938 115.796 39.2154 116.446 38.7777C117.585 38.0093 118.605 37.1076 119.525 36.0841C120.798 34.6691 122.084 33.2655 123.383 31.8768C124.428 30.7628 125.588 29.7739 126.928 29.0335C127.938 28.4757 129.032 28.2256 130.207 28.3013C131.13 28.3605 131.992 28.6073 132.79 29.0286C133.476 29.3889 134.121 29.8398 134.74 30.312C136.081 31.3371 137.218 32.586 138.426 33.7575C139.143 34.4535 139.854 35.1561 140.683 35.7205C141.639 36.3721 142.656 36.9019 143.77 37.2277C145.358 37.6917 146.929 37.6078 148.499 37.1142C149.528 36.79 150.474 36.2948 151.365 35.7156C152.558 34.9422 153.697 34.0817 154.864 33.2672C155.884 32.5547 156.894 31.8209 158.001 31.2499C158.913 30.7793 159.856 30.3795 160.871 30.1656C162.182 29.8891 163.464 30.0224 164.728 30.4041C166.025 30.7958 167.216 31.4177 168.28 32.2437C169.521 33.2079 170.727 34.2182 171.932 35.2285C172.894 36.0348 173.811 36.9003 174.791 37.6851C175.902 38.5753 177.101 39.3437 178.41 39.9147C179.109 40.2207 179.849 40.4116 180.608 40.5482C181.612 40.7275 182.602 40.6716 183.593 40.5054C184.419 40.3655 185.2 40.0809 185.947 39.6991C186.707 39.3125 187.422 38.855 188.068 38.3005C188.93 37.5584 189.725 36.7522 190.359 35.8028C190.89 35.0047 191.361 34.1754 191.718 33.2754C191.96 32.6649 192.208 32.0594 192.348 31.4177C192.499 30.7234 192.652 30.0273 192.764 29.3247C193.013 27.7748 193.042 26.21 192.977 24.6485C192.916 23.1972 192.744 21.7525 192.508 20.3177C192.295 19.0343 192.072 17.7525 191.871 16.4674C191.573 14.5571 191.323 12.6435 191.323 10.7035C191.323 9.60108 191.418 8.51016 191.677 7.44229C192.009 6.07165 192.56 4.78658 193.498 3.71705C194.589 2.47312 195.843 1.4513 197.524 1.10741C198.191 0.970842 198.859 0.982362 199.529 1.08437C200.651 1.2555 201.648 1.73761 202.553 2.39413C203.242 2.89598 203.784 3.5558 204.259 4.26663C204.842 5.1387 205.243 6.0881 205.529 7.09839C205.91 8.43612 205.984 9.79524 205.905 11.1675C205.855 12.0281 205.791 12.8952 205.645 13.7426C205.454 14.8467 205.225 15.9508 204.921 17.0302C204.34 19.0853 203.693 21.1223 203.076 23.1676C202.811 24.0446 202.505 24.9134 202.304 25.8052C202.003 27.1396 201.778 28.4889 201.524 29.8332C201.335 30.8369 201.345 31.8538 201.36 32.8673C201.385 34.5358 201.636 36.173 202.209 37.7444C202.609 38.8402 203.147 39.8653 203.848 40.8098C204.391 41.542 205.016 42.187 205.753 42.7086C206.683 43.3651 207.696 43.8637 208.796 44.1895C210.058 44.5646 211.33 44.6255 212.615 44.3622C213.289 44.224 213.893 43.9114 214.504 43.5938C215.405 43.1232 216.078 42.4124 216.674 41.6292C217.136 41.0204 217.467 40.3244 217.742 39.6053C218.041 38.8205 218.232 38.0093 218.379 37.1849C218.579 36.0463 218.629 34.8961 218.568 33.7476C218.518 32.7768 218.418 31.8077 218.301 30.8418C218.173 29.769 217.998 28.6995 217.849 27.6283C217.676 26.3794 217.551 25.1289 217.557 23.8652C217.566 22.618 217.789 21.4136 218.211 20.242C218.597 19.1676 219.111 18.1573 219.823 17.2654C220.572 16.3276 221.493 15.6003 222.653 15.2416C223.756 14.901 224.843 14.9997 225.9 15.4769C226.915 15.9343 227.618 16.7044 228.165 17.6505C229.034 19.1511 229.362 20.7801 229.367 22.4929C229.37 23.4012 229.233 24.2881 229.062 25.1816C228.784 26.6312 228.216 27.9771 227.7 29.3461C227.251 30.5374 226.811 31.732 226.402 32.9364C226.16 33.6456 225.947 34.3696 225.785 35.1018C225.536 36.2174 225.465 37.3511 225.526 38.4947C225.579 39.4885 225.77 40.4544 226.145 41.3742C226.637 42.577 227.316 43.6514 228.343 44.4889C228.845 44.8987 229.357 45.2722 229.964 45.5124C231.122 45.9682 232.284 46.0143 233.449 45.5618C234.553 45.1323 235.4 44.3738 236.095 43.4276C236.577 42.7678 236.903 42.0307 237.187 41.2738C237.546 40.3227 237.755 39.3305 237.971 38.3416C238.204 37.2721 238.431 36.1993 238.723 35.1446C238.987 34.182 239.328 33.2376 239.911 32.4066C240.789 31.1544 241.885 30.2017 243.455 29.9533C244.205 29.8348 244.914 29.9368 245.572 30.3745C246.369 30.9027 246.83 31.6563 247.109 32.5333C247.414 33.4844 247.402 34.4798 247.433 35.4622C247.47 36.5728 247.697 37.6374 248.11 38.6609C248.513 39.658 249.161 40.4725 250.015 41.1356C250.604 41.593 251.229 41.983 251.924 42.2495C252.676 42.5375 253.438 42.7958 254.255 42.86C254.899 42.9093 255.535 42.9521 256.182 42.8847C257.242 42.7711 258.249 42.4898 259.218 42.057C260.725 41.384 261.962 40.3803 262.941 39.0475C263.695 38.0224 264.24 36.9003 264.651 35.7024C265.084 34.4404 265.362 33.1438 265.546 31.8258C265.753 30.3284 265.732 28.8196 265.745 27.3107C265.757 25.9385 265.638 24.5711 265.518 23.2087C265.421 22.1046 265.225 21.0088 265.072 19.9096C264.773 17.7657 264.44 15.6266 264.304 13.4645C264.223 12.1778 264.222 10.8911 264.352 9.60437C264.44 8.71584 264.564 7.83718 264.768 6.97004C264.876 6.50603 265.025 6.04696 265.206 5.60599C265.413 5.10085 265.676 4.62038 265.911 4.12676C266.204 3.51136 266.665 3.01939 267.114 2.52411C267.906 1.65039 268.863 1.0021 269.936 0.513407C270.91 0.0691478 271.932 -0.0559057 272.983 0.0247216C274.668 0.153063 276.065 0.908312 277.286 2.03871C278.171 2.85649 278.854 3.82564 279.406 4.88693C280.009 6.05025 280.348 7.30406 280.549 8.59572C280.83 10.4073 280.849 12.2272 280.668 14.0486C280.544 15.2745 280.386 16.497 280.253 17.7212C280.13 18.8516 280.018 19.9837 279.901 21.1157C279.723 22.8368 279.659 24.5596 279.7 26.2889C279.728 27.4983 279.838 28.6995 280.075 29.8825C280.324 31.1215 280.74 32.3112 281.385 33.4087C282.089 34.6065 283.014 35.5987 284.182 36.3556C284.852 36.7884 285.569 37.124 286.32 37.3955C287.119 37.6835 287.935 37.9188 288.78 38.0027C289.568 38.08 290.366 38.1031 291.159 38.0932C292.961 38.0701 294.622 37.5321 296.228 36.7341C297.556 36.0743 298.718 35.2038 299.827 34.2413C299.924 34.1573 300.057 34.1162 300.174 34.057C300.174 50.1459 300.174 66.2431 300.174 82.3419C218.232 82.3419 136.29 82.3419 54.3481 82.3419C54.3481 66.1608 54.3481 49.9814 54.3481 33.8036Z" fill="#FFCA0D"/>
</g>
<g clip-path="url(#clip2_42_207)">
<path d="M-190 33.8036C-189.687 33.5041 -189.386 33.1915 -189.062 32.9052C-188.251 32.1911 -187.293 31.8571 -186.221 31.964C-185.269 32.0594 -184.527 32.5679 -183.983 33.3445C-183.071 34.646 -182.527 36.099 -182.29 37.6638C-182.161 38.5144 -182.097 39.3766 -181.985 40.2306C-181.778 41.8053 -181.681 43.3997 -181.187 44.9233C-180.842 45.9896 -180.363 46.9916 -179.52 47.7601C-178.186 48.9793 -176.646 49.3907 -174.903 48.6107C-173.812 48.1237 -173.019 47.3322 -172.368 46.3565C-171.739 45.4137 -171.446 44.3573 -171.244 43.2631C-170.949 41.6687 -170.908 40.048 -170.735 38.4404C-170.594 37.1323 -170.41 35.8291 -169.97 34.5786C-169.664 33.7065 -169.222 32.9085 -168.522 32.2849C-168.078 31.8883 -167.54 31.6349 -166.979 31.4539C-166.617 31.3371 -166.239 31.2466 -165.862 31.2088C-164.55 31.0788 -163.698 31.5773 -163.239 32.9249C-163.02 33.5699 -162.903 34.2511 -162.767 34.9208C-162.63 35.5905 -162.54 36.2701 -162.408 36.9431C-162.178 38.1245 -161.557 39.0772 -160.6 39.7863C-159.981 40.2438 -159.273 40.5334 -158.517 40.716C-157.77 40.897 -157.024 40.9102 -156.272 40.8213C-155.055 40.6782 -154 40.1631 -153.037 39.4161C-152.024 38.6296 -151.329 37.6012 -150.803 36.4626C-150.11 34.9636 -149.801 33.3708 -149.801 31.7188C-149.801 30.0965 -149.926 28.4905 -150.322 26.9093C-150.607 25.769 -150.836 24.6156 -151.104 23.4703C-151.382 22.2856 -151.708 21.1108 -151.958 19.9195C-152.376 17.922 -152.547 15.9014 -152.233 13.8726C-152.037 12.6023 -151.581 11.4209 -150.854 10.3432C-150.186 9.35263 -149.394 8.49536 -148.351 7.89807C-147.793 7.57887 -147.199 7.37154 -146.553 7.26294C-145.901 7.15435 -145.261 7.18396 -144.634 7.30902C-143.186 7.59532 -142.057 8.3555 -141.398 9.71298C-141.268 9.98118 -141.184 10.2774 -141.115 10.5702C-140.876 11.5772 -140.784 12.6023 -140.892 13.6324C-140.99 14.5571 -141.118 15.4818 -141.274 16.3983C-141.467 17.5304 -141.709 18.6542 -141.918 19.783C-142.136 20.9611 -142.194 22.1474 -142.118 23.3453C-142.005 25.1421 -141.741 26.9159 -141.281 28.6551C-140.957 29.8743 -140.519 31.0574 -140.024 32.219C-139.321 33.8694 -138.382 35.3766 -137.225 36.7407C-136.183 37.9681 -134.916 38.9192 -133.429 39.5445C-132.323 40.0085 -131.163 40.0842 -130.001 39.788C-129.241 39.5938 -128.552 39.2154 -127.902 38.7777C-126.763 38.0093 -125.743 37.1076 -124.823 36.0841C-123.55 34.6691 -122.265 33.2655 -120.965 31.8768C-119.92 30.7628 -118.76 29.7739 -117.421 29.0335C-116.41 28.4757 -115.316 28.2256 -114.141 28.3013C-113.218 28.3605 -112.356 28.6073 -111.558 29.0286C-110.872 29.3889 -110.227 29.8398 -109.608 30.312C-108.267 31.3371 -107.13 32.586 -105.922 33.7575C-105.205 34.4535 -104.494 35.1561 -103.665 35.7205C-102.709 36.3721 -101.692 36.9019 -100.578 37.2277C-98.9901 37.6917 -97.4188 37.6078 -95.849 37.1142C-94.8206 36.79 -93.8745 36.2948 -92.9827 35.7156C-91.7898 34.9422 -90.6511 34.0817 -89.4845 33.2672C-88.4644 32.5547 -87.4541 31.8209 -86.3467 31.2499C-85.4352 30.7793 -84.4923 30.3795 -83.4771 30.1656C-82.1657 29.8891 -80.8839 30.0224 -79.6202 30.4041C-78.3236 30.7958 -77.1324 31.4177 -76.0678 32.2437C-74.8271 33.2079 -73.621 34.2182 -72.4166 35.2285C-71.454 36.0348 -70.5375 36.9003 -69.5568 37.6851C-68.4462 38.5753 -67.2467 39.3437 -65.9386 39.9147C-65.2393 40.2207 -64.4988 40.4116 -63.7403 40.5482C-62.7366 40.7275 -61.746 40.6716 -60.7555 40.5054C-59.9295 40.3655 -59.1479 40.0809 -58.4009 39.6991C-57.6407 39.3125 -56.9266 38.855 -56.2799 38.3005C-55.4177 37.5584 -54.623 36.7522 -53.9895 35.8028C-53.458 35.0047 -52.9875 34.1754 -52.6304 33.2754C-52.3885 32.6649 -52.1401 32.0594 -52.0002 31.4177C-51.8488 30.7234 -51.6958 30.0273 -51.5839 29.3247C-51.3354 27.7748 -51.3058 26.21 -51.3716 24.6485C-51.4325 23.1972 -51.6037 21.7525 -51.8406 20.3177C-52.0529 19.0343 -52.2766 17.7525 -52.4774 16.4674C-52.7752 14.5571 -53.0253 12.6435 -53.0253 10.7035C-53.0253 9.60108 -52.9299 8.51016 -52.6715 7.44229C-52.3392 6.07165 -51.7879 4.78658 -50.8501 3.71705C-49.7591 2.47312 -48.5053 1.4513 -46.8237 1.10741C-46.1573 0.970842 -45.4893 0.982362 -44.8196 1.08437C-43.6974 1.2555 -42.7003 1.73761 -41.7953 2.39413C-41.1059 2.89598 -40.5645 3.5558 -40.089 4.26663C-39.5065 5.1387 -39.105 6.0881 -38.8187 7.09839C-38.4386 8.43612 -38.3646 9.79524 -38.4436 11.1675C-38.4929 12.0281 -38.5571 12.8952 -38.7035 13.7426C-38.8944 14.8467 -39.1231 15.9508 -39.4275 17.0302C-40.0084 19.0853 -40.655 21.1223 -41.272 23.1676C-41.537 24.0446 -41.843 24.9134 -42.0438 25.8052C-42.3449 27.1396 -42.5703 28.4889 -42.8237 29.8332C-43.0129 30.8369 -43.003 31.8538 -42.9882 32.8673C-42.9635 34.5358 -42.7118 36.173 -42.1392 37.7444C-41.7393 38.8402 -41.2013 39.8653 -40.5003 40.8098C-39.9573 41.542 -39.3321 42.187 -38.595 42.7086C-37.6653 43.3651 -36.6517 43.8637 -35.5526 44.1895C-34.2905 44.5646 -33.0186 44.6255 -31.7335 44.3622C-31.0589 44.224 -30.455 43.9114 -29.8446 43.5938C-28.9429 43.1232 -28.2699 42.4124 -27.6743 41.6292C-27.2119 41.0204 -26.8812 40.3244 -26.6064 39.6053C-26.3069 38.8205 -26.1161 38.0093 -25.9696 37.1849C-25.7689 36.0463 -25.7195 34.8961 -25.7804 33.7476C-25.8298 32.7768 -25.9301 31.8077 -26.047 30.8418C-26.1753 29.769 -26.3497 28.6995 -26.4994 27.6283C-26.6722 26.3794 -26.7973 25.1289 -26.7907 23.8652C-26.7825 22.618 -26.5587 21.4136 -26.1375 20.242C-25.7508 19.1676 -25.2374 18.1573 -24.5249 17.2654C-23.7763 16.3276 -22.8548 15.6003 -21.6948 15.2416C-20.5924 14.901 -19.5048 14.9997 -18.4484 15.4769C-17.4332 15.9343 -16.7306 16.7044 -16.1827 17.6505C-15.3139 19.1511 -14.9864 20.7801 -14.9815 22.4929C-14.9782 23.4012 -15.1148 24.2881 -15.2859 25.1816C-15.564 26.6312 -16.1316 27.9771 -16.6483 29.3461C-17.0975 30.5374 -17.5368 31.732 -17.9466 32.9364C-18.1884 33.6456 -18.4007 34.3696 -18.5636 35.1018C-18.812 36.2174 -18.8828 37.3511 -18.8219 38.4947C-18.7693 39.4885 -18.5784 40.4544 -18.2032 41.3742C-17.7113 42.577 -17.0317 43.6514 -16.0049 44.4889C-15.5031 44.8987 -14.9914 45.2722 -14.3842 45.5124C-13.2258 45.9682 -12.0642 46.0143 -10.8992 45.5618C-9.79513 45.1323 -8.94774 44.3738 -8.25338 43.4276C-7.77126 42.7678 -7.44547 42.0307 -7.16081 41.2738C-6.80211 40.3227 -6.59314 39.3305 -6.37759 38.3416C-6.14394 37.2721 -5.91687 36.1993 -5.62563 35.1446C-5.36072 34.182 -5.02012 33.2376 -4.43764 32.4066C-3.55898 31.1544 -2.46313 30.2017 -0.893403 29.9533C-0.14309 29.8348 0.566085 29.9368 1.22425 30.3745C2.02064 30.9027 2.48136 31.6563 2.76108 32.5333C3.06548 33.4844 3.05397 34.4798 3.08523 35.4622C3.12143 36.5728 3.34849 37.6374 3.76149 38.6609C4.16462 39.658 4.81292 40.4725 5.66689 41.1356C6.25595 41.593 6.88122 41.983 7.57558 42.2495C8.32754 42.5375 9.08937 42.7958 9.90714 42.86C10.5505 42.9093 11.1873 42.9521 11.8339 42.8847C12.8936 42.7711 13.9006 42.4898 14.8697 42.057C16.3769 41.384 17.6143 40.3803 18.5933 39.0475C19.3469 38.0224 19.8916 36.9003 20.3029 35.7024C20.7357 34.4404 21.0137 33.1438 21.198 31.8258C21.4053 30.3284 21.384 28.8196 21.3971 27.3107C21.4086 25.9385 21.2902 24.5711 21.1701 23.2087C21.073 22.1046 20.8772 21.0088 20.7241 19.9096C20.4247 17.7657 20.0923 15.6266 19.9557 13.4645C19.8751 12.1778 19.8735 10.8911 20.0034 9.60437C20.0923 8.71584 20.2157 7.83718 20.4197 6.97004C20.5283 6.50603 20.6764 6.04696 20.8574 5.60599C21.0647 5.10085 21.328 4.62038 21.5633 4.12676C21.8562 3.51136 22.3169 3.01939 22.7661 2.52411C23.5576 1.65039 24.5152 1.0021 25.588 0.513407C26.5621 0.0691478 27.5839 -0.0559057 28.6353 0.0247216C30.3202 0.153063 31.7172 0.908312 32.9381 2.03871C33.8233 2.85649 34.5062 3.82564 35.0574 4.88693C35.6613 6.05025 36.0002 7.30406 36.201 8.59572C36.4823 10.4073 36.5004 12.2272 36.3194 14.0486C36.196 15.2745 36.0381 16.497 35.9048 17.7212C35.7814 18.8516 35.6695 19.9837 35.5527 21.1157C35.375 22.8368 35.3108 24.5596 35.3519 26.2889C35.3799 27.4983 35.4902 28.6995 35.7271 29.8825C35.9756 31.1215 36.3918 32.3112 37.0369 33.4087C37.7411 34.6065 38.6658 35.5987 39.8341 36.3556C40.5038 36.7884 41.2212 37.124 41.9715 37.3955C42.7711 37.6835 43.5873 37.9188 44.4314 38.0027C45.2195 38.08 46.0176 38.1031 46.8107 38.0932C48.6124 38.0701 50.2743 37.5321 51.8802 36.7341C53.2081 36.0743 54.3697 35.2038 55.4787 34.2413C55.5758 34.1573 55.7091 34.1162 55.8259 34.057C55.8259 50.1459 55.8259 66.2431 55.8259 82.3419C-26.1161 82.3419 -108.058 82.3419 -190 82.3419C-190 66.1608 -190 49.9814 -190 33.8036Z" fill="#FFCA0D"/>
</g>
<defs>
<clipPath id="clip0_42_207">
<rect width="245.826" height="82.3418" fill="white" transform="translate(546 82.3418) rotate(180)"/>
</clipPath>
<clipPath id="clip1_42_207">
<rect width="245.826" height="82.3418" fill="white" transform="translate(300.174 82.3419) rotate(180)"/>
</clipPath>
<clipPath id="clip2_42_207">
<rect width="245.826" height="82.3418" fill="white" transform="translate(55.8259 82.3419) rotate(180)"/>
</clipPath>
</defs>
</svg>
