<svg width="393" height="83" viewBox="0 0 393 83" fill="none" xmlns="http://www.w3.org/2000/svg">
<g clip-path="url(#clip0_42_193)">
<path d="M55.826 48.5383C55.5134 48.8377 55.2122 49.1504 54.8881 49.4367C54.0769 50.1508 53.1193 50.4848 52.0464 50.3779C51.0954 50.2824 50.3533 49.774 49.8087 48.9974C48.8971 47.6958 48.3525 46.2429 48.1155 44.6781C47.9872 43.8274 47.923 42.9652 47.8111 42.1113C47.6038 40.5366 47.5067 38.9422 47.0131 37.4185C46.6676 36.3523 46.1888 35.3502 45.3463 34.5818C44.0119 33.3626 42.4717 32.9512 40.7292 33.7311C39.6383 34.2182 38.8452 35.0096 38.1936 35.9854C37.5651 36.9282 37.2722 37.9846 37.0698 39.0788C36.7753 40.6732 36.7342 42.2939 36.5614 43.9015C36.4199 45.2096 36.2356 46.5128 35.7963 47.7633C35.4902 48.6354 35.0476 49.4334 34.3483 50.057C33.904 50.4536 33.366 50.7069 32.8049 50.8879C32.4429 51.0048 32.0645 51.0953 31.6877 51.1331C30.3763 51.2631 29.5239 50.7645 29.0648 49.4169C28.846 48.7719 28.7292 48.0907 28.5926 47.421C28.456 46.7514 28.3655 46.0718 28.2339 45.3988C28.0036 44.2174 27.3832 43.2647 26.4256 42.5555C25.8069 42.0981 25.0994 41.8085 24.3425 41.6259C23.5955 41.4449 22.8501 41.4317 22.0981 41.5206C20.8805 41.6637 19.8258 42.1787 18.8632 42.9258C17.8496 43.7123 17.1553 44.7407 16.6288 45.8793C15.936 47.3783 15.6267 48.971 15.6267 50.623C15.6267 52.2454 15.7517 53.8514 16.1483 55.4326C16.4329 56.5729 16.6617 57.7263 16.9299 58.8715C17.2079 60.0562 17.5337 61.2311 17.7838 62.4224C18.2018 64.4199 18.3729 66.4405 18.0586 68.4693C17.8628 69.7395 17.407 70.921 16.6797 71.9987C16.0117 72.9893 15.2203 73.8465 14.1771 74.4438C13.6193 74.763 13.0253 74.9703 12.3786 75.0789C11.727 75.1875 11.087 75.1579 10.4601 75.0329C9.0121 74.7466 7.88333 73.9864 7.22351 72.6289C7.09352 72.3607 7.00961 72.0645 6.94051 71.7716C6.70192 70.7646 6.60979 69.7395 6.71838 68.7095C6.81546 67.7848 6.94379 66.8601 7.10011 65.9436C7.29262 64.8115 7.5345 63.6877 7.74347 62.5589C7.96231 61.3808 8.0199 60.1945 7.94421 58.9966C7.83067 57.1998 7.56741 55.426 7.10669 53.6868C6.78255 52.4676 6.34486 51.2845 5.84959 50.1228C5.147 48.4725 4.20746 46.9653 3.05074 45.6012C2.00917 44.3737 0.742188 43.4227 -0.74527 42.7974C-1.851 42.3334 -3.011 42.2577 -4.17267 42.5539C-4.93286 42.748 -5.6223 43.1265 -6.27223 43.5642C-7.41087 44.3326 -8.43102 45.2343 -9.35081 46.2577C-10.6244 47.6728 -11.9095 49.0763 -13.2093 50.4651C-14.2542 51.579 -15.4142 52.5679 -16.7536 53.3084C-17.7639 53.8662 -18.8581 54.1163 -20.0329 54.0406C-20.956 53.9813 -21.8182 53.7345 -22.6162 53.3133C-23.3023 52.953 -23.9474 52.5021 -24.566 52.0299C-25.907 51.0048 -27.044 49.7559 -28.2518 48.5844C-28.9692 47.8883 -29.68 47.1857 -30.5093 46.6214C-31.4653 45.9698 -32.4821 45.44 -33.5961 45.1142C-35.1839 44.6502 -36.7553 44.7341 -38.325 45.2277C-39.3534 45.5518 -40.2995 46.0471 -41.1914 46.6263C-42.3843 47.3997 -43.5229 48.2602 -44.6895 49.0747C-45.7097 49.7872 -46.72 50.521 -47.8273 51.092C-48.7389 51.5626 -49.6817 51.9624 -50.697 52.1763C-52.0084 52.4527 -53.2902 52.3195 -54.5538 51.9377C-55.8504 51.5461 -57.0417 50.9241 -58.1063 50.0981C-59.3469 49.1339 -60.553 48.1236 -61.7575 47.1133C-62.7201 46.3071 -63.6366 45.4416 -64.6172 44.6567C-65.7279 43.7666 -66.9274 42.9982 -68.2355 42.4272C-68.9348 42.1211 -69.6753 41.9303 -70.4338 41.7937C-71.4375 41.6144 -72.428 41.6703 -73.4186 41.8365C-74.2446 41.9763 -75.0262 42.261 -75.7732 42.6427C-76.5334 43.0294 -77.2475 43.4868 -77.8941 44.0414C-78.7563 44.7834 -79.5511 45.5897 -80.1846 46.5391C-80.716 47.3371 -81.1866 48.1664 -81.5437 49.0665C-81.7856 49.6769 -82.034 50.2824 -82.1739 50.9241C-82.3253 51.6185 -82.4783 52.3145 -82.5902 53.0171C-82.8386 54.5671 -82.8682 56.1319 -82.8024 57.6934C-82.7416 59.1447 -82.5704 60.5894 -82.3335 62.0242C-82.1212 63.3076 -81.8974 64.5894 -81.6967 65.8744C-81.3989 67.7848 -81.1488 69.6984 -81.1488 71.6384C-81.1488 72.7408 -81.2442 73.8317 -81.5025 74.8996C-81.8349 76.2702 -82.3861 77.5553 -83.324 78.6248C-84.4149 79.8688 -85.6688 80.8906 -87.3504 81.2345C-88.0168 81.371 -88.6848 81.3595 -89.3545 81.2575C-90.4767 81.0864 -91.4738 80.6043 -92.3788 79.9477C-93.0682 79.4459 -93.6096 78.7861 -94.0851 78.0752C-94.6676 77.2032 -95.069 76.2538 -95.3554 75.2435C-95.7354 73.9057 -95.8095 72.5466 -95.7305 71.1743C-95.6812 70.3138 -95.617 69.4467 -95.4705 68.5993C-95.2797 67.4952 -95.0509 66.3911 -94.7465 65.3117C-94.1657 63.2566 -93.5191 61.2195 -92.902 59.1743C-92.6371 58.2973 -92.3311 57.4285 -92.1303 56.5367C-91.8292 55.2022 -91.6038 53.853 -91.3504 52.5087C-91.1612 51.505 -91.1711 50.4881 -91.1859 49.4745C-91.2105 47.8061 -91.4623 46.1689 -92.0349 44.5975C-92.4347 43.5017 -92.9728 42.4766 -93.6737 41.5321C-94.2167 40.7999 -94.842 40.1549 -95.5791 39.6333C-96.5088 38.9767 -97.5224 38.4782 -98.6215 38.1524C-99.8836 37.7772 -101.155 37.7164 -102.441 37.9796C-103.115 38.1178 -103.719 38.4305 -104.329 38.748C-105.231 39.2186 -105.904 39.9294 -106.5 40.7127C-106.962 41.3215 -107.293 42.0175 -107.568 42.7365C-107.867 43.5214 -108.058 44.3326 -108.204 45.1569C-108.405 46.2956 -108.455 47.4457 -108.394 48.5942C-108.344 49.565 -108.244 50.5342 -108.127 51.5C-107.999 52.5729 -107.824 53.6424 -107.675 54.7136C-107.502 55.9624 -107.377 57.2129 -107.383 58.4766C-107.392 59.7239 -107.615 60.9283 -108.037 62.0998C-108.423 63.1743 -108.937 64.1846 -109.649 65.0764C-110.398 66.0143 -111.319 66.7416 -112.479 67.1003C-113.582 67.4409 -114.669 67.3422 -115.726 66.865C-116.741 66.4076 -117.443 65.6375 -117.991 64.6914C-118.86 63.1908 -119.188 61.5618 -119.193 59.8489C-119.196 58.9406 -119.059 58.0538 -118.888 57.1603C-118.61 55.7107 -118.042 54.3647 -117.526 52.9957C-117.077 51.8044 -116.637 50.6099 -116.228 49.4054C-115.986 48.6962 -115.773 47.9723 -115.61 47.24C-115.362 46.1245 -115.291 44.9908 -115.352 43.8472C-115.405 42.8534 -115.596 41.8875 -115.971 40.9677C-116.463 39.7649 -117.142 38.6904 -118.169 37.8529C-118.671 37.4432 -119.183 37.0697 -119.79 36.8295C-120.948 36.3737 -122.11 36.3276 -123.275 36.7801C-124.379 37.2096 -125.226 37.9681 -125.921 38.9142C-126.403 39.574 -126.729 40.3112 -127.013 41.0681C-127.372 42.0191 -127.581 43.0113 -127.796 44.0002C-128.03 45.0697 -128.257 46.1426 -128.548 47.1973C-128.813 48.1598 -129.154 49.1043 -129.736 49.9352C-130.615 51.1874 -131.711 52.1401 -133.281 52.3886C-134.031 52.507 -134.74 52.405 -135.398 51.9673C-136.195 51.4392 -136.655 50.6856 -136.935 49.8085C-137.24 48.8575 -137.228 47.862 -137.259 46.8797C-137.296 45.769 -137.523 44.7045 -137.936 43.681C-138.339 42.6839 -138.987 41.8694 -139.841 41.2063C-140.43 40.7489 -141.055 40.3589 -141.75 40.0923C-142.502 39.8044 -143.263 39.5461 -144.081 39.4819C-144.725 39.4325 -145.361 39.3897 -146.008 39.4572C-147.068 39.5707 -148.075 39.8521 -149.044 40.2849C-150.551 40.9578 -151.788 41.9615 -152.767 43.2943C-153.521 44.3194 -154.066 45.4416 -154.477 46.6395C-154.91 47.9015 -155.188 49.1981 -155.372 50.5161C-155.579 52.0134 -155.558 53.5223 -155.571 55.0311C-155.583 56.4034 -155.464 57.7707 -155.344 59.1332C-155.247 60.2372 -155.051 61.3331 -154.898 62.4322C-154.599 64.5762 -154.266 66.7153 -154.13 68.8773C-154.049 70.1641 -154.048 71.4508 -154.178 72.7375C-154.266 73.626 -154.39 74.5047 -154.594 75.3718C-154.702 75.8358 -154.851 76.2949 -155.032 76.7359C-155.239 77.241 -155.502 77.7215 -155.737 78.2151C-156.03 78.8305 -156.491 79.3225 -156.94 79.8177C-157.732 80.6915 -158.689 81.3398 -159.762 81.8285C-160.736 82.2727 -161.758 82.3978 -162.809 82.3171C-164.494 82.1888 -165.891 81.4335 -167.112 80.3031C-167.997 79.4854 -168.68 78.5162 -169.231 77.4549C-169.835 76.2916 -170.174 75.0378 -170.375 73.7461C-170.656 71.9345 -170.675 70.1147 -170.494 68.2932C-170.37 67.0674 -170.212 65.8448 -170.079 64.6206C-169.955 63.4902 -169.844 62.3582 -169.727 61.2261C-169.549 59.505 -169.485 57.7823 -169.526 56.0529C-169.554 54.8435 -169.664 53.6424 -169.901 52.4593C-170.15 51.2203 -170.566 50.0307 -171.211 48.9332C-171.915 47.7353 -172.84 46.7431 -174.008 45.9862C-174.678 45.5535 -175.395 45.2178 -176.146 44.9463C-176.945 44.6584 -177.761 44.4231 -178.605 44.3392C-179.394 44.2618 -180.192 44.2388 -180.985 44.2487C-182.786 44.2717 -184.448 44.8098 -186.054 45.6078C-187.382 46.2676 -188.544 47.138 -189.653 48.1006C-189.75 48.1845 -189.883 48.2257 -190 48.2849C-190 32.196 -190 16.0988 -190 0C-108.058 0 -26.116 0 55.826 0C55.826 16.1811 55.826 32.3605 55.826 48.5383Z" fill="#FFCA0D"/>
</g>
<g clip-path="url(#clip1_42_193)">
<path d="M301.652 48.5383C301.339 48.8377 301.038 49.1504 300.714 49.4367C299.903 50.1508 298.945 50.4848 297.872 50.3779C296.921 50.2824 296.179 49.774 295.635 48.9974C294.723 47.6958 294.178 46.2429 293.941 44.6781C293.813 43.8274 293.749 42.9652 293.637 42.1113C293.43 40.5366 293.333 38.9422 292.839 37.4185C292.493 36.3523 292.015 35.3502 291.172 34.5818C289.838 33.3626 288.298 32.9512 286.555 33.7311C285.464 34.2182 284.671 35.0096 284.02 35.9854C283.391 36.9282 283.098 37.9846 282.896 39.0788C282.601 40.6732 282.56 42.2939 282.387 43.9015C282.246 45.2096 282.062 46.5128 281.622 47.7633C281.316 48.6354 280.874 49.4334 280.174 50.057C279.73 50.4536 279.192 50.7069 278.631 50.8879C278.269 51.0048 277.89 51.0953 277.514 51.1331C276.202 51.2631 275.35 50.7645 274.891 49.4169C274.672 48.7719 274.555 48.0907 274.419 47.421C274.282 46.7514 274.191 46.0718 274.06 45.3988C273.829 44.2174 273.209 43.2647 272.252 42.5555C271.633 42.0981 270.925 41.8085 270.168 41.6259C269.421 41.4449 268.676 41.4317 267.924 41.5206C266.706 41.6637 265.652 42.1787 264.689 42.9258C263.676 43.7123 262.981 44.7407 262.455 45.8793C261.762 47.3783 261.453 48.971 261.453 50.623C261.453 52.2454 261.578 53.8514 261.974 55.4326C262.259 56.5729 262.488 57.7263 262.756 58.8715C263.034 60.0562 263.36 61.2311 263.61 62.4224C264.028 64.4199 264.199 66.4405 263.885 68.4693C263.689 69.7395 263.233 70.921 262.506 71.9987C261.838 72.9893 261.046 73.8465 260.003 74.4438C259.445 74.763 258.851 74.9703 258.205 75.0789C257.553 75.1875 256.913 75.1579 256.286 75.0329C254.838 74.7466 253.709 73.9864 253.049 72.6289C252.919 72.3607 252.836 72.0645 252.766 71.7716C252.528 70.7646 252.436 69.7395 252.544 68.7095C252.641 67.7848 252.77 66.8601 252.926 65.9436C253.119 64.8115 253.36 63.6877 253.569 62.5589C253.788 61.3808 253.846 60.1945 253.77 58.9966C253.657 57.1998 253.393 55.426 252.933 53.6868C252.608 52.4676 252.171 51.2845 251.676 50.1228C250.973 48.4725 250.033 46.9653 248.877 45.6012C247.835 44.3737 246.568 43.4227 245.081 42.7974C243.975 42.3334 242.815 42.2577 241.653 42.5539C240.893 42.748 240.204 43.1265 239.554 43.5642C238.415 44.3326 237.395 45.2343 236.475 46.2577C235.202 47.6728 233.916 49.0763 232.617 50.4651C231.572 51.579 230.412 52.5679 229.072 53.3084C228.062 53.8662 226.968 54.1163 225.793 54.0406C224.87 53.9813 224.008 53.7345 223.21 53.3133C222.524 52.953 221.879 52.5021 221.26 52.0299C219.919 51.0048 218.782 49.7559 217.574 48.5844C216.857 47.8883 216.146 47.1857 215.317 46.6214C214.361 45.9698 213.344 45.44 212.23 45.1142C210.642 44.6502 209.071 44.7341 207.501 45.2277C206.472 45.5518 205.526 46.0471 204.635 46.6263C203.442 47.3997 202.303 48.2602 201.136 49.0747C200.116 49.7872 199.106 50.521 197.999 51.092C197.087 51.5626 196.144 51.9624 195.129 52.1763C193.818 52.4527 192.536 52.3195 191.272 51.9377C189.975 51.5461 188.784 50.9241 187.72 50.0981C186.479 49.1339 185.273 48.1236 184.068 47.1133C183.106 46.3071 182.189 45.4416 181.209 44.6567C180.098 43.7666 178.899 42.9982 177.59 42.4272C176.891 42.1211 176.151 41.9303 175.392 41.7937C174.388 41.6144 173.398 41.6703 172.407 41.8365C171.581 41.9763 170.8 42.261 170.053 42.6427C169.293 43.0294 168.578 43.4868 167.932 44.0414C167.07 44.7834 166.275 45.5897 165.641 46.5391C165.11 47.3371 164.639 48.1664 164.282 49.0665C164.04 49.6769 163.792 50.2824 163.652 50.9241C163.501 51.6185 163.348 52.3145 163.236 53.0171C162.987 54.5671 162.958 56.1319 163.023 57.6934C163.084 59.1447 163.256 60.5894 163.492 62.0242C163.705 63.3076 163.928 64.5894 164.129 65.8744C164.427 67.7848 164.677 69.6984 164.677 71.6384C164.677 72.7408 164.582 73.8317 164.323 74.8996C163.991 76.2702 163.44 77.5553 162.502 78.6248C161.411 79.8688 160.157 80.8906 158.476 81.2345C157.809 81.371 157.141 81.3595 156.471 81.2575C155.349 81.0864 154.352 80.6043 153.447 79.9477C152.758 79.4459 152.216 78.7861 151.741 78.0752C151.158 77.2032 150.757 76.2538 150.471 75.2435C150.09 73.9057 150.016 72.5466 150.095 71.1743C150.145 70.3138 150.209 69.4467 150.355 68.5993C150.546 67.4952 150.775 66.3911 151.079 65.3117C151.66 63.2566 152.307 61.2195 152.924 59.1743C153.189 58.2973 153.495 57.4285 153.696 56.5367C153.997 55.2022 154.222 53.853 154.476 52.5087C154.665 51.505 154.655 50.4881 154.64 49.4745C154.615 47.8061 154.364 46.1689 153.791 44.5975C153.391 43.5017 152.853 42.4766 152.152 41.5321C151.609 40.7999 150.984 40.1549 150.247 39.6333C149.317 38.9767 148.304 38.4782 147.204 38.1524C145.942 37.7772 144.67 37.7164 143.385 37.9796C142.711 38.1178 142.107 38.4305 141.496 38.748C140.595 39.2186 139.922 39.9294 139.326 40.7127C138.864 41.3215 138.533 42.0175 138.258 42.7365C137.959 43.5214 137.768 44.3326 137.621 45.1569C137.421 46.2956 137.371 47.4457 137.432 48.5942C137.482 49.565 137.582 50.5342 137.699 51.5C137.827 52.5729 138.002 53.6424 138.151 54.7136C138.324 55.9624 138.449 57.2129 138.443 58.4766C138.434 59.7239 138.211 60.9283 137.789 62.0998C137.403 63.1743 136.889 64.1846 136.177 65.0764C135.428 66.0143 134.507 66.7416 133.347 67.1003C132.244 67.4409 131.157 67.3422 130.1 66.865C129.085 66.4076 128.382 65.6375 127.835 64.6914C126.966 63.1908 126.638 61.5618 126.633 59.8489C126.63 58.9406 126.767 58.0538 126.938 57.1603C127.216 55.7107 127.784 54.3647 128.3 52.9957C128.749 51.8044 129.189 50.6099 129.598 49.4054C129.84 48.6962 130.053 47.9723 130.215 47.24C130.464 46.1245 130.535 44.9908 130.474 43.8472C130.421 42.8534 130.23 41.8875 129.855 40.9677C129.363 39.7649 128.684 38.6904 127.657 37.8529C127.155 37.4432 126.643 37.0697 126.036 36.8295C124.878 36.3737 123.716 36.3276 122.551 36.7801C121.447 37.2096 120.6 37.9681 119.905 38.9142C119.423 39.574 119.097 40.3112 118.813 41.0681C118.454 42.0191 118.245 43.0113 118.029 44.0002C117.796 45.0697 117.569 46.1426 117.277 47.1973C117.013 48.1598 116.672 49.1043 116.089 49.9352C115.211 51.1874 114.115 52.1401 112.545 52.3886C111.795 52.507 111.086 52.405 110.428 51.9673C109.631 51.4392 109.17 50.6856 108.891 49.8085C108.586 48.8575 108.598 47.862 108.567 46.8797C108.53 45.769 108.303 44.7045 107.89 43.681C107.487 42.6839 106.839 41.8694 105.985 41.2063C105.396 40.7489 104.771 40.3589 104.076 40.0923C103.324 39.8044 102.562 39.5461 101.745 39.4819C101.101 39.4325 100.465 39.3897 99.8179 39.4572C98.7583 39.5707 97.7513 39.8521 96.7821 40.2849C95.2749 40.9578 94.0376 41.9615 93.0585 43.2943C92.3049 44.3194 91.7603 45.4416 91.3489 46.6395C90.9162 47.9015 90.6381 49.1981 90.4538 50.5161C90.2465 52.0134 90.2679 53.5223 90.2547 55.0311C90.2432 56.4034 90.3617 57.7707 90.4818 59.1332C90.5789 60.2372 90.7747 61.3331 90.9277 62.4322C91.2272 64.5762 91.5595 66.7153 91.6961 68.8773C91.7767 70.1641 91.7784 71.4508 91.6484 72.7375C91.5595 73.626 91.4361 74.5047 91.2321 75.3718C91.1235 75.8358 90.9754 76.2949 90.7944 76.7359C90.5871 77.241 90.3238 77.7215 90.0885 78.2151C89.7957 78.8305 89.3349 79.3225 88.8857 79.8177C88.0943 80.6915 87.1367 81.3398 86.0638 81.8285C85.0898 82.2727 84.0679 82.3978 83.0165 82.3171C81.3316 82.1888 79.9346 81.4335 78.7137 80.3031C77.8285 79.4854 77.1457 78.5162 76.5944 77.4549C75.9906 76.2916 75.6516 75.0378 75.4509 73.7461C75.1695 71.9345 75.1514 70.1147 75.3324 68.2932C75.4558 67.0674 75.6138 65.8448 75.747 64.6206C75.8705 63.4902 75.9823 62.3582 76.0992 61.2261C76.2769 59.505 76.341 57.7823 76.2999 56.0529C76.2719 54.8435 76.1617 53.6424 75.9248 52.4593C75.6763 51.2203 75.26 50.0307 74.615 48.9332C73.9108 47.7353 72.986 46.7431 71.8178 45.9862C71.1481 45.5535 70.4307 45.2178 69.6804 44.9463C68.8807 44.6584 68.0646 44.4231 67.2205 44.3392C66.4323 44.2618 65.6343 44.2388 64.8412 44.2487C63.0395 44.2717 61.3776 44.8098 59.7716 45.6078C58.4438 46.2676 57.2821 47.138 56.1731 48.1006C56.076 48.1845 55.9428 48.2257 55.8259 48.2849C55.8259 32.196 55.8259 16.0988 55.8259 0C137.768 0 219.71 0 301.652 0C301.652 16.1811 301.652 32.3605 301.652 48.5383Z" fill="#FFCA0D"/>
</g>
<g clip-path="url(#clip2_42_193)">
<path d="M546 48.5383C545.687 48.8377 545.386 49.1504 545.062 49.4367C544.251 50.1508 543.293 50.4848 542.221 50.3779C541.269 50.2824 540.527 49.774 539.983 48.9974C539.071 47.6958 538.527 46.2429 538.29 44.6781C538.161 43.8274 538.097 42.9652 537.985 42.1113C537.778 40.5366 537.681 38.9422 537.187 37.4185C536.842 36.3523 536.363 35.3502 535.52 34.5818C534.186 33.3626 532.646 32.9512 530.903 33.7311C529.812 34.2182 529.019 35.0096 528.368 35.9854C527.739 36.9282 527.446 37.9846 527.244 39.0788C526.949 40.6732 526.908 42.2939 526.735 43.9015C526.594 45.2096 526.41 46.5128 525.97 47.7633C525.664 48.6354 525.222 49.4334 524.522 50.057C524.078 50.4536 523.54 50.7069 522.979 50.8879C522.617 51.0048 522.239 51.0953 521.862 51.1331C520.55 51.2631 519.698 50.7645 519.239 49.4169C519.02 48.7719 518.903 48.0907 518.767 47.421C518.63 46.7514 518.54 46.0718 518.408 45.3988C518.178 44.2174 517.557 43.2647 516.6 42.5555C515.981 42.0981 515.273 41.8085 514.517 41.6259C513.77 41.4449 513.024 41.4317 512.272 41.5206C511.055 41.6637 510 42.1787 509.037 42.9258C508.024 43.7123 507.329 44.7407 506.803 45.8793C506.11 47.3783 505.801 48.971 505.801 50.623C505.801 52.2454 505.926 53.8514 506.322 55.4326C506.607 56.5729 506.836 57.7263 507.104 58.8715C507.382 60.0562 507.708 61.2311 507.958 62.4224C508.376 64.4199 508.547 66.4405 508.233 68.4693C508.037 69.7395 507.581 70.921 506.854 71.9987C506.186 72.9893 505.394 73.8465 504.351 74.4438C503.793 74.763 503.199 74.9703 502.553 75.0789C501.901 75.1875 501.261 75.1579 500.634 75.0329C499.186 74.7466 498.057 73.9864 497.398 72.6289C497.268 72.3607 497.184 72.0645 497.115 71.7716C496.876 70.7646 496.784 69.7395 496.892 68.7095C496.99 67.7848 497.118 66.8601 497.274 65.9436C497.467 64.8115 497.709 63.6877 497.918 62.5589C498.136 61.3808 498.194 60.1945 498.118 58.9966C498.005 57.1998 497.741 55.426 497.281 53.6868C496.957 52.4676 496.519 51.2845 496.024 50.1228C495.321 48.4725 494.382 46.9653 493.225 45.6012C492.183 44.3737 490.916 43.4227 489.429 42.7974C488.323 42.3334 487.163 42.2577 486.001 42.5539C485.241 42.748 484.552 43.1265 483.902 43.5642C482.763 44.3326 481.743 45.2343 480.823 46.2577C479.55 47.6728 478.265 49.0763 476.965 50.4651C475.92 51.579 474.76 52.5679 473.421 53.3084C472.41 53.8662 471.316 54.1163 470.141 54.0406C469.218 53.9813 468.356 53.7345 467.558 53.3133C466.872 52.953 466.227 52.5021 465.608 52.0299C464.267 51.0048 463.13 49.7559 461.922 48.5844C461.205 47.8883 460.494 47.1857 459.665 46.6214C458.709 45.9698 457.692 45.44 456.578 45.1142C454.99 44.6502 453.419 44.7341 451.849 45.2277C450.821 45.5518 449.875 46.0471 448.983 46.6263C447.79 47.3997 446.651 48.2602 445.485 49.0747C444.464 49.7872 443.454 50.521 442.347 51.092C441.435 51.5626 440.492 51.9624 439.477 52.1763C438.166 52.4527 436.884 52.3195 435.62 51.9377C434.324 51.5461 433.132 50.9241 432.068 50.0981C430.827 49.1339 429.621 48.1236 428.417 47.1133C427.454 46.3071 426.538 45.4416 425.557 44.6567C424.446 43.7666 423.247 42.9982 421.939 42.4272C421.239 42.1211 420.499 41.9303 419.74 41.7937C418.737 41.6144 417.746 41.6703 416.755 41.8365C415.929 41.9763 415.148 42.261 414.401 42.6427C413.641 43.0294 412.927 43.4868 412.28 44.0414C411.418 44.7834 410.623 45.5897 409.99 46.5391C409.458 47.3371 408.987 48.1664 408.63 49.0665C408.389 49.6769 408.14 50.2824 408 50.9241C407.849 51.6185 407.696 52.3145 407.584 53.0171C407.335 54.5671 407.306 56.1319 407.372 57.6934C407.433 59.1447 407.604 60.5894 407.841 62.0242C408.053 63.3076 408.277 64.5894 408.477 65.8744C408.775 67.7848 409.025 69.6984 409.025 71.6384C409.025 72.7408 408.93 73.8317 408.672 74.8996C408.339 76.2702 407.788 77.5553 406.85 78.6248C405.759 79.8688 404.505 80.8906 402.824 81.2345C402.157 81.371 401.489 81.3595 400.82 81.2575C399.697 81.0864 398.7 80.6043 397.795 79.9477C397.106 79.4459 396.565 78.7861 396.089 78.0752C395.507 77.2032 395.105 76.2538 394.819 75.2435C394.439 73.9057 394.365 72.5466 394.444 71.1743C394.493 70.3138 394.557 69.4467 394.704 68.5993C394.894 67.4952 395.123 66.3911 395.428 65.3117C396.008 63.2566 396.655 61.2195 397.272 59.1743C397.537 58.2973 397.843 57.4285 398.044 56.5367C398.345 55.2022 398.57 53.853 398.824 52.5087C399.013 51.505 399.003 50.4881 398.988 49.4745C398.964 47.8061 398.712 46.1689 398.139 44.5975C397.739 43.5017 397.201 42.4766 396.5 41.5321C395.957 40.7999 395.332 40.1549 394.595 39.6333C393.665 38.9767 392.652 38.4782 391.553 38.1524C390.291 37.7772 389.019 37.7164 387.734 37.9796C387.059 38.1178 386.455 38.4305 385.845 38.748C384.943 39.2186 384.27 39.9294 383.674 40.7127C383.212 41.3215 382.881 42.0175 382.606 42.7365C382.307 43.5214 382.116 44.3326 381.97 45.1569C381.769 46.2956 381.72 47.4457 381.78 48.5942C381.83 49.565 381.93 50.5342 382.047 51.5C382.175 52.5729 382.35 53.6424 382.499 54.7136C382.672 55.9624 382.797 57.2129 382.791 58.4766C382.782 59.7239 382.559 60.9283 382.137 62.0998C381.751 63.1743 381.237 64.1846 380.525 65.0764C379.776 66.0143 378.855 66.7416 377.695 67.1003C376.592 67.4409 375.505 67.3422 374.448 66.865C373.433 66.4076 372.731 65.6375 372.183 64.6914C371.314 63.1908 370.986 61.5618 370.981 59.8489C370.978 58.9406 371.115 58.0538 371.286 57.1603C371.564 55.7107 372.132 54.3647 372.648 52.9957C373.098 51.8044 373.537 50.6099 373.947 49.4054C374.188 48.6962 374.401 47.9723 374.564 47.24C374.812 46.1245 374.883 44.9908 374.822 43.8472C374.769 42.8534 374.578 41.8875 374.203 40.9677C373.711 39.7649 373.032 38.6904 372.005 37.8529C371.503 37.4432 370.991 37.0697 370.384 36.8295C369.226 36.3737 368.064 36.3276 366.899 36.7801C365.795 37.2096 364.948 37.9681 364.253 38.9142C363.771 39.574 363.445 40.3112 363.161 41.0681C362.802 42.0191 362.593 43.0113 362.378 44.0002C362.144 45.0697 361.917 46.1426 361.626 47.1973C361.361 48.1598 361.02 49.1043 360.438 49.9352C359.559 51.1874 358.463 52.1401 356.893 52.3886C356.143 52.507 355.434 52.405 354.776 51.9673C353.979 51.4392 353.519 50.6856 353.239 49.8085C352.935 48.8575 352.946 47.862 352.915 46.8797C352.879 45.769 352.652 44.7045 352.239 43.681C351.835 42.6839 351.187 41.8694 350.333 41.2063C349.744 40.7489 349.119 40.3589 348.424 40.0923C347.672 39.8044 346.911 39.5461 346.093 39.4819C345.449 39.4325 344.813 39.3897 344.166 39.4572C343.106 39.5707 342.099 39.8521 341.13 40.2849C339.623 40.9578 338.386 41.9615 337.407 43.2943C336.653 44.3194 336.108 45.4416 335.697 46.6395C335.264 47.9015 334.986 49.1981 334.802 50.5161C334.595 52.0134 334.616 53.5223 334.603 55.0311C334.591 56.4034 334.71 57.7707 334.83 59.1332C334.927 60.2372 335.123 61.3331 335.276 62.4322C335.575 64.5762 335.908 66.7153 336.044 68.8773C336.125 70.1641 336.127 71.4508 335.997 72.7375C335.908 73.626 335.784 74.5047 335.58 75.3718C335.472 75.8358 335.324 76.2949 335.143 76.7359C334.935 77.241 334.672 77.7215 334.437 78.2151C334.144 78.8305 333.683 79.3225 333.234 79.8177C332.442 80.6915 331.485 81.3398 330.412 81.8285C329.438 82.2727 328.416 82.3978 327.365 82.3171C325.68 82.1888 324.283 81.4335 323.062 80.3031C322.177 79.4854 321.494 78.5162 320.943 77.4549C320.339 76.2916 320 75.0378 319.799 73.7461C319.518 71.9345 319.5 70.1147 319.681 68.2932C319.804 67.0674 319.962 65.8448 320.095 64.6206C320.219 63.4902 320.33 62.3582 320.447 61.2261C320.625 59.505 320.689 57.7823 320.648 56.0529C320.62 54.8435 320.51 53.6424 320.273 52.4593C320.024 51.2203 319.608 50.0307 318.963 48.9332C318.259 47.7353 317.334 46.7431 316.166 45.9862C315.496 45.5535 314.779 45.2178 314.029 44.9463C313.229 44.6584 312.413 44.4231 311.569 44.3392C310.78 44.2618 309.982 44.2388 309.189 44.2487C307.388 44.2717 305.726 44.8098 304.12 45.6078C302.792 46.2676 301.63 47.138 300.521 48.1006C300.424 48.1845 300.291 48.2257 300.174 48.2849C300.174 32.196 300.174 16.0988 300.174 0C382.116 0 464.058 0 546 0C546 16.1811 546 32.3605 546 48.5383Z" fill="#FFCA0D"/>
</g>
<defs>
<clipPath id="clip0_42_193">
<rect width="245.826" height="82.3418" fill="white" transform="translate(-190)"/>
</clipPath>
<clipPath id="clip1_42_193">
<rect width="245.826" height="82.3418" fill="white" transform="translate(55.8259)"/>
</clipPath>
<clipPath id="clip2_42_193">
<rect width="245.826" height="82.3418" fill="white" transform="translate(300.174)"/>
</clipPath>
</defs>
</svg>
